{
  "accessors": [
    {
      "bufferView": 2,
      "componentType": 5126,
      "count": 218,
      "max": [
        0.7425060272216797,
        0.6371909976005554,
        0.30018100142478943
      ],
      "min": [
        0.06421499699354172,
        -0.6371909976005554,
        0.05279399827122688
      ],
      "type": "VEC3"
    },
    {
      "bufferView": 2,
      "byteOffset": 2616,
      "componentType": 5126,
      "count": 218,
      "max": [
        0.8299424052238464,
        0.9503291249275208,
        0.9999858736991882
      ],
      "min": [
        -0.828126847743988,
        -0.9503272175788879,
        -0.9998882412910461
      ],
      "type": "VEC3"
    },
    {
      "bufferView": 3,
      "componentType": 5126,
      "count": 218,
      "max": [
        0.9993373155593872,
        0.9974604249000549,
        0.8662306666374207,
        1.0
      ],
      "min": [
        -0.961479127407074,
        -0.9974604249000549,
        -0.8299423456192017,
        -1.0
      ],
      "type": "VEC4"
    },
    {
      "bufferView": 1,
      "componentType": 5126,
      "count": 218,
      "max": [
        0.732446014881134,
        0.25
      ],
      "min": [
        0.375,
        0.0
      ],
      "type": "VEC2"
    },
    {
      "bufferView": 0,
      "componentType": 5125,
      "count": 1296,
      "type": "SCALAR"
    },
    {
      "bufferView": 2,
      "byteOffset": 5232,
      "componentType": 5126,
      "count": 1387,
      "max": [
        0.8890960216522217,
        0.20844300091266632,
        1.0227429866790771
      ],
      "min": [
        0.7719299793243408,
        -0.2084439992904663,
        0.6892150044441223
      ],
      "type": "VEC3"
    },
    {
      "bufferView": 2,
      "byteOffset": 21876,
      "componentType": 5126,
      "count": 1387,
      "max": [
        0.9839248657226563,
        0.9998852610588074,
        0.9437217712402344
      ],
      "min": [
        -0.33012112975120544,
        -0.9998852610588074,
        -0.995785653591156
      ],
      "type": "VEC3"
    },
    {
      "bufferView": 1,
      "byteOffset": 1744,
      "componentType": 5126,
      "count": 1387,
      "max": [
        0.8790140151977539,
        0.8917649984359741
      ],
      "min": [
        0.12098599970340729,
        0.10380800068378448
      ],
      "type": "VEC2"
    },
    {
      "bufferView": 0,
      "byteOffset": 5184,
      "componentType": 5125,
      "count": 8088,
      "type": "SCALAR"
    },
    {
      "bufferView": 2,
      "byteOffset": 38520,
      "componentType": 5126,
      "count": 300,
      "max": [
        0.2842459976673126,
        0.6119570136070251,
        0.49415698647499084
      ],
      "min": [
        0.2258470058441162,
        -0.6119570136070251,
        0.4298489987850189
      ],
      "type": "VEC3"
    },
    {
      "bufferView": 2,
      "byteOffset": 42120,
      "componentType": 5126,
      "count": 300,
      "max": [
        0.9372386336326599,
        0.9910959005355835,
        0.6979048252105713
      ],
      "min": [
        -0.23944899439811707,
        -0.9910956621170044,
        -0.7233350276947021
      ],
      "type": "VEC3"
    },
    {
      "bufferView": 1,
      "byteOffset": 12840,
      "componentType": 5126,
      "count": 300,
      "max": [
        1.0,
        1.0
      ],
      "min": [
        0.0,
        0.6000000238418579
      ],
      "type": "VEC2"
    },
    {
      "bufferView": 0,
      "byteOffset": 37536,
      "componentType": 5125,
      "count": 420,
      "type": "SCALAR"
    },
    {
      "bufferView": 2,
      "byteOffset": 45720,
      "componentType": 5126,
      "count": 703,
      "max": [
        0.8879119753837585,
        0.2084439992904663,
        1.029041051864624
      ],
      "min": [
        0.7579460144042969,
        -0.2084439992904663,
        0.689562976360321
      ],
      "type": "VEC3"
    },
    {
      "bufferView": 2,
      "byteOffset": 54156,
      "componentType": 5126,
      "count": 703,
      "max": [
        0.3300899565219879,
        0.9998792409896851,
        0.9993240237236023
      ],
      "min": [
        -0.9989595413208008,
        -0.9998792409896851,
        -0.9437301158905029
      ],
      "type": "VEC3"
    },
    {
      "bufferView": 1,
      "byteOffset": 15240,
      "componentType": 5126,
      "count": 703,
      "max": [
        1.0,
        1.017941951751709
      ],
      "min": [
        0.0,
        -0.021926000714302063
      ],
      "type": "VEC2"
    },
    {
      "bufferView": 0,
      "byteOffset": 39216,
      "componentType": 5125,
      "count": 3984,
      "type": "SCALAR"
    },
    {
      "bufferView": 2,
      "byteOffset": 62592,
      "componentType": 5126,
      "count": 298,
      "max": [
        0.6008009910583496,
        0.6301829814910889,
        0.5144169926643372
      ],
      "min": [
        0.17819200456142426,
        -0.626134991645813,
        0.409621000289917
      ],
      "type": "VEC3"
    },
    {
      "bufferView": 2,
      "byteOffset": 66168,
      "componentType": 5126,
      "count": 298,
      "max": [
        1.0,
        0.9999991059303284,
        0.9995895028114319
      ],
      "min": [
        -1.0,
        -0.9999988675117493,
        -0.9996376633644104
      ],
      "type": "VEC3"
    },
    {
      "bufferView": 3,
      "byteOffset": 3488,
      "componentType": 5126,
      "count": 298,
      "max": [
        0.9996917843818665,
        1.0,
        0.35809457302093506,
        1.0
      ],
      "min": [
        -0.9997257590293884,
        -0.0014961875276640058,
        -0.26181113719940186,
        -1.0
      ],
      "type": "VEC4"
    },
    {
      "bufferView": 1,
      "byteOffset": 20864,
      "componentType": 5126,
      "count": 298,
      "max": [
        0.625,
        0.6472049951553345
      ],
      "min": [
        0.375,
        0.5917379856109619
      ],
      "type": "VEC2"
    },
    {
      "bufferView": 0,
      "byteOffset": 55152,
      "componentType": 5125,
      "count": 1680,
      "type": "SCALAR"
    },
    {
      "bufferView": 2,
      "byteOffset": 69744,
      "componentType": 5126,
      "count": 261,
      "max": [
        0.5932769775390625,
        0.6763129830360413,
        0.36714500188827515
      ],
      "min": [
        -0.7095159888267517,
        -0.6763129830360413,
        0.29427000880241394
      ],
      "type": "VEC3"
    },
    {
      "bufferView": 2,
      "byteOffset": 72876,
      "componentType": 5126,
      "count": 261,
      "max": [
        1.0,
        0.9999591112136841,
        1.0
      ],
      "min": [
        -1.0,
        -0.9999591112136841,
        -1.9999999949504854e-06
      ],
      "type": "VEC3"
    },
    {
      "bufferView": 1,
      "byteOffset": 23248,
      "componentType": 5126,
      "count": 261,
      "max": [
        2.228641986846924,
        0.684128999710083
      ],
      "min": [
        -1.2281769514083862,
        0.315871000289917
      ],
      "type": "VEC2"
    },
    {
      "bufferView": 0,
      "byteOffset": 61872,
      "componentType": 5125,
      "count": 1344,
      "type": "SCALAR"
    },
    {
      "bufferView": 2,
      "byteOffset": 76008,
      "componentType": 5126,
      "count": 1980,
      "max": [
        0.8840699791908264,
        0.9605690240859985,
        1.1084729433059692
      ],
      "min": [
        -0.961683988571167,
        -0.957410991191864,
        0.29427000880241394
      ],
      "type": "VEC3"
    },
    {
      "bufferView": 2,
      "byteOffset": 99768,
      "componentType": 5126,
      "count": 1980,
      "max": [
        1.0,
        0.999950110912323,
        0.9955878853797913
      ],
      "min": [
        -1.0,
        -0.999950110912323,
        -1.0
      ],
      "type": "VEC3"
    },
    {
      "bufferView": 1,
      "byteOffset": 25336,
      "componentType": 5126,
      "count": 1980,
      "max": [
        2.058029890060425,
        1.611261010169983
      ],
      "min": [
        -1.0268479585647583,
        -0.877265989780426
      ],
      "type": "VEC2"
    },
    {
      "bufferView": 0,
      "byteOffset": 67248,
      "componentType": 5125,
      "count": 11352,
      "type": "SCALAR"
    }
  ],
  "asset": {
    "extras": {
      "author": "JalenJacobson (https://sketchfab.com/JalenJacobson)",
      "license": "CC-BY-4.0 (http://creativecommons.org/licenses/by/4.0/)",
      "source": "https://sketchfab.com/3d-models/police-hat-3ccb6b620ee34fc0a1c1b403d11eca9b",
      "title": "Police Hat"
    },
    "generator": "Sketchfab-14.35.0",
    "version": "2.0"
  },
  "bufferViews": [
    {
      "buffer": 0,
      "byteLength": 112656,
      "name": "floatBufferViews",
      "target": 34963
    },
    {
      "buffer": 0,
      "byteLength": 41176,
      "byteOffset": 112656,
      "byteStride": 8,
      "name": "floatBufferViews",
      "target": 34962
    },
    {
      "buffer": 0,
      "byteLength": 123528,
      "byteOffset": 153832,
      "byteStride": 12,
      "name": "floatBufferViews",
      "target": 34962
    },
    {
      "buffer": 0,
      "byteLength": 8256,
      "byteOffset": 277360,
      "byteStride": 16,
      "name": "floatBufferViews",
      "target": 34962
    }
  ],
  "buffers": [
    {
      "byteLength": 285616,
      "uri": "scene.bin"
    }
  ],
  "images": [
    {
      "uri": "textures/lambert2SG_baseColor.png"
    },
    {
      "uri": "textures/lambert3SG_normal.png"
    },
    {
      "uri": "textures/lambert4SG_baseColor.jpeg"
    }
  ],
  "materials": [
    {
      "doubleSided": true,
      "name": "lambert2SG",
      "pbrMetallicRoughness": {
        "baseColorTexture": {
          "index": 0
        },
        "metallicFactor": 0.7273246951,
        "roughnessFactor": 0.4671066438351998
      }
    },
    {
      "doubleSided": true,
      "name": "lambert3SG",
      "normalTexture": {
        "index": 1
      },
      "pbrMetallicRoughness": {
        "baseColorFactor": [
          0.0,
          0.0,
          0.0,
          1.0
        ],
        "metallicFactor": 0.5401024526591764,
        "roughnessFactor": 0.418442771285882
      }
    },
    {
      "doubleSided": true,
      "name": "lambert4SG",
      "pbrMetallicRoughness": {
        "baseColorTexture": {
          "index": 2
        },
        "metallicFactor": 0.9712271341,
        "roughnessFactor": 0.03521477496000438
      }
    },
    {
      "doubleSided": true,
      "name": "lambert5SG",
      "pbrMetallicRoughness": {
        "baseColorFactor": [
          0.0687881098,
          0.0687881098,
          0.0687881098,
          1.0
        ],
        "metallicFactor": 0.0,
        "roughnessFactor": 0.2151295732
      }
    },
    {
      "doubleSided": true,
      "name": "lambert6SG",
      "normalTexture": {
        "index": 1
      },
      "pbrMetallicRoughness": {
        "baseColorFactor": [
          0.016965822754010207,
          0.016965822754010207,
          0.016965822754010207,
          1.0
        ],
        "metallicFactor": 0.7286749587877829,
        "roughnessFactor": 0.2907001058439228
      }
    },
    {
      "doubleSided": true,
      "name": "lambert7SG",
      "pbrMetallicRoughness": {
        "baseColorFactor": [
          0.6191812455518179,
          0.6191812455518179,
          0.6191812455518179,
          1.0
        ],
        "roughnessFactor": 0.0443978659
      }
    },
    {
      "doubleSided": true,
      "name": "lambert8SG",
      "pbrMetallicRoughness": {
        "baseColorTexture": {
          "index": 0
        },
        "roughnessFactor": 0.6
      }
    }
  ],
  "meshes": [
    {
      "name": "Object_0",
      "primitives": [
        {
          "attributes": {
            "NORMAL": 1,
            "POSITION": 0,
            "TANGENT": 2,
            "TEXCOORD_0": 3
          },
          "indices": 4,
          "material": 1,
          "mode": 4
        }
      ]
    },
    {
      "name": "Object_1",
      "primitives": [
        {
          "attributes": {
            "NORMAL": 6,
            "POSITION": 5,
            "TEXCOORD_0": 7
          },
          "indices": 8,
          "material": 2,
          "mode": 4
        }
      ]
    },
    {
      "name": "Object_2",
      "primitives": [
        {
          "attributes": {
            "NORMAL": 10,
            "POSITION": 9,
            "TEXCOORD_0": 11
          },
          "indices": 12,
          "material": 5,
          "mode": 4
        }
      ]
    },
    {
      "name": "Object_3",
      "primitives": [
        {
          "attributes": {
            "NORMAL": 14,
            "POSITION": 13,
            "TEXCOORD_0": 15
          },
          "indices": 16,
          "material": 3,
          "mode": 4
        }
      ]
    },
    {
      "name": "Object_4",
      "primitives": [
        {
          "attributes": {
            "NORMAL": 18,
            "POSITION": 17,
            "TANGENT": 19,
            "TEXCOORD_0": 20
          },
          "indices": 21,
          "material": 4,
          "mode": 4
        }
      ]
    },
    {
      "name": "Object_5",
      "primitives": [
        {
          "attributes": {
            "NORMAL": 23,
            "POSITION": 22,
            "TEXCOORD_0": 24
          },
          "indices": 25,
          "material": 6,
          "mode": 4
        }
      ]
    },
    {
      "name": "Object_6",
      "primitives": [
        {
          "attributes": {
            "NORMAL": 27,
            "POSITION": 26,
            "TEXCOORD_0": 28
          },
          "indices": 29,
          "material": 0,
          "mode": 4
        }
      ]
    }
  ],
  "nodes": [
    {
      "children": [
        1
      ],
      "matrix": [
        1.0,
        0.0,
        0.0,
        0.0,
        0.0,
        2.220446049250313e-16,
        -1.0,
        0.0,
        0.0,
        1.0,
        2.220446049250313e-16,
        0.0,
        0.0,
        0.0,
        0.0,
        1.0
      ],
      "name": "Sketchfab_model"
    },
    {
      "children": [
        2,
        3,
        4,
        5,
        6,
        7,
        8
      ],
      "name": "Police Hat.obj.cleaner.materialmerger.gles"
    },
    {
      "mesh": 0,
      "name": "Object_2"
    },
    {
      "mesh": 1,
      "name": "Object_3"
    },
    {
      "mesh": 2,
      "name": "Object_4"
    },
    {
      "mesh": 3,
      "name": "Object_5"
    },
    {
      "mesh": 4,
      "name": "Object_6"
    },
    {
      "mesh": 5,
      "name": "Object_7"
    },
    {
      "mesh": 6,
      "name": "Object_8"
    }
  ],
  "samplers": [
    {
      "magFilter": 9729,
      "minFilter": 9987,
      "wrapS": 10497,
      "wrapT": 10497
    }
  ],
  "scene": 0,
  "scenes": [
    {
      "name": "Sketchfab_Scene",
      "nodes": [
        0
      ]
    }
  ],
  "textures": [
    {
      "sampler": 0,
      "source": 0
    },
    {
      "sampler": 0,
      "source": 1
    },
    {
      "sampler": 0,
      "source": 2
    }
  ]
}
